<svg id="bull_dark_bg" xmlns="http://www.w3.org/2000/svg" viewBox="0 0 394 394"><defs><style>.cls-1{fill:#454040;}.cls-2{fill:#fff;}</style></defs><circle class="cls-1" cx="197" cy="197" r="197"/><path class="cls-2" d="M1138.91,535.54l-1.64,9.9,10.48.65a4,4,0,0,1,3.42,2.51l5.46,14.13a3.76,3.76,0,0,1,0,2.76l-12.21,30.35a4.2,4.2,0,0,1-2.2,2.26l-17.32,7.59c-2.46,1.1-5.69.86-5.44-3.27l-.67-10.33a3.65,3.65,0,0,1,2.47-3.7L1134,584l-.41-13.81-4.06,1.22L1110.06,595l-57.67,24.36-6.09,15.44-26.39,21.11-5.78,24.67a4.92,4.92,0,0,0,.08,2.61l4.87,15.83a3.08,3.08,0,0,1-3,4h-11.27a3.43,3.43,0,0,1-3.23-2.28l-3.92-10.9a9.69,9.69,0,0,1-.32-5.41l5.46-24-4.41-3.89a3.55,3.55,0,0,1-.46-4.83l7.72-10-11.78-24.37,2.44-15.43-19.51,22.18a4.25,4.25,0,0,1-3,1.45l-13.07.57a5.69,5.69,0,0,1-5.4-3.26l-4.73-10a4.63,4.63,0,0,1,0-4l6.82-14.62a3.2,3.2,0,0,1,2.6-1.83l17.06-1.64a4.23,4.23,0,0,1,4.61,3.39c0,.15,0,.3.06.45a6.82,6.82,0,0,1-.06,1.53,4.27,4.27,0,0,1-3.79,3.54l-12.35,1.3a2.26,2.26,0,0,0-1.81,1.28L960.48,609a3.34,3.34,0,0,0,0,2.83l1.73,3.7a1.68,1.68,0,0,0,1.52,1h6a3.36,3.36,0,0,0,2.5-1.11l25.61-28.58a6.47,6.47,0,0,0,1.6-3.68l0-.29a3,3,0,0,1,2.2-2.62l19.51-5.14,32.08-57.26,17.86-14.62h11l39.11-37.94a4.36,4.36,0,0,1,4.42-1L1166.5,478s8.33-4.27,16.25.4c7.67,4.53,5.88,7.92,11.77,6.91,5-.87,5.89-5.08,9.34-5.28s4.67,4.26.41,8.93c-5,5.52-14.82,12.39-27.61,2.44-2.85.4-4.88.81-4.88.81l-2.43,14.62-8.94,6.09V531.1a3.8,3.8,0,0,1-3.35,3.77l-10.79,1.29a4.17,4.17,0,0,1-4.21-2.28l-10.28-20.32-.53-.44c-.76-.19-.87,0-.87.76h0a2.15,2.15,0,0,0,.22.93l7.65,16.38A7,7,0,0,1,1138.91,535.54Z" transform="translate(-886 -384)"/><path class="cls-2" d="M1043.88,692.47l-4.48-12.21,5.68-24s-5.68-3.45-5.68-6.09c0-1.83,11.78-11,11.78-11l5.68-15,20-8.74a2.33,2.33,0,0,1,3.14,1.38l2.83,8.17-22.74,27.61-4.31,20.81a10.57,10.57,0,0,0,.31,5.41l3.62,11.12a3.74,3.74,0,0,1-3.55,4.9h-9A3.53,3.53,0,0,1,1043.88,692.47Z" transform="translate(-886 -384)"/><path class="cls-2" d="M1174.85,579.85l10.62.92a3.39,3.39,0,0,0,3.84-4.12L1185,559.3a2.58,2.58,0,0,0-.89-1.43l-22.54-18.73a2.65,2.65,0,0,0-1.68-.61l-11.63-.4a2.64,2.64,0,0,0-2.58,3.19l.17.78a2.64,2.64,0,0,0,2.09,2l4.5.84a.45.45,0,0,1,.36.32l4.58,14.1a2.52,2.52,0,0,0,.72,1.12l4.13,3.82a2.62,2.62,0,0,0,1.51.68l6.55.69a.4.4,0,0,1,.35.33l2.05,11.66A2.65,2.65,0,0,0,1174.85,579.85Z" transform="translate(-886 -384)"/></svg>